# xmcd
#
# Track frame offsets: 
#        150
#        10520
#        28002
#        44943
#        56982
#        77896
#        93960
#        107738
#        124335
#        137873
#
# Disc length: 1971 seconds
#
# Revision: 0
# Processed by: cddbd v1.5.2PL0 Copyright (c) Steve Scherf et al.
# Submitted via: ExactAudioCopy v1.0b3
#
DISCID=8b07b10a
DTITLE=Stephanie Bell - The Beating Of My Heart
DYEAR=2012
DGENRE=Country
TTITLE0=Cold Hard Fax
TTITLE1=This Beating Of My Heart
TTITLE2=Burining Desire
TTITLE3=Ole Heartache
TTITLE4=Someone Else's Gain
TTITLE5=As Close As I Can Be
TTITLE6=Chilled To The Bone
TTITLE7=Turning The Tables
TTITLE8=Love Made It
TTITLE9=Wheels Of Fortune
EXTD=
EXTT0=
EXTT1=
EXTT2=
EXTT3=
EXTT4=
EXTT5=
EXTT6=
EXTT7=
EXTT8=
EXTT9=
PLAYORDER=
